<?xml version="1.0" encoding="UTF-8"?><svg id="Calque_1" xmlns="http://www.w3.org/2000/svg" viewBox="0 0 233.25 23.56"><defs><style>.cls-1{fill:#4a4a4a;stroke-width:0px;}</style></defs><path class="cls-1" d="m13.76,5.47c3.36,0,5.7,2.52,5.7,5.61s-2.34,5.64-5.7,5.64-5.67-2.52-5.67-5.64,2.3-5.61,5.67-5.61Zm0,9.37c2.06,0,3.58-1.68,3.58-3.74s-1.53-3.74-3.58-3.74-3.58,1.68-3.58,3.74,1.53,3.74,3.58,3.74Z"/><path class="cls-1" d="m24.6,5.62c1.74,0,2.87.37,3.77,1.03,1.34,1,2.18,2.62,2.18,4.42s-.81,3.43-2.18,4.42c-.9.65-2.02,1.03-3.77,1.03h-3.43V5.62h3.43Zm3.05,3.08c-.59-.78-1.49-1.21-2.8-1.21h-1.56v7.16h1.56c1.31,0,2.18-.44,2.8-1.21.5-.62.81-1.46.81-2.37s-.31-1.74-.81-2.37Z"/><path class="cls-1" d="m37.71,5.47c3.36,0,5.7,2.52,5.7,5.61s-2.34,5.61-5.7,5.61-5.7-2.52-5.7-5.61,2.34-5.61,5.7-5.61Zm0,9.37c2.06,0,3.58-1.68,3.58-3.74s-1.53-3.74-3.58-3.74-3.58,1.68-3.58,3.74,1.53,3.74,3.58,3.74Z"/><path class="cls-1" d="m50.58,12.16l3.99-6.54h1.49v10.9h-2.12v-6.07l-2.62,4.3h-1.46l-2.62-4.3v6.07h-2.12V5.62h1.49l3.96,6.54h0Z"/><path class="cls-1" d="m57.27,16.56l4.67-10.9h1.49l4.67,10.9h-2.21l-1.03-2.43h-4.39l-1.03,2.43h-2.18Zm4.05-4.3h2.77l-1.4-3.24-1.37,3.24h0Z"/><path class="cls-1" d="m0,1.14h5.42v1.99h-3.33v15.91h3.33v1.99H0V1.14Z"/><path class="cls-1" d="m76.3,21.04h-5.42v-1.99h3.3V3.13h-3.3v-1.99h5.42v19.9h0Z"/><path class="cls-1" d="m99.45,12.26l3.26-3.26c.28-.28.28-.73,0-1-.28-.28-.73-.28-1,0l-3.26,3.26-3.26-3.26c-.28-.28-.73-.28-1,0-.28.28-.28.73,0,1l3.26,3.26-3.26,3.26c-.28.28-.28.73,0,1,.14.14.32.21.5.21s.36-.07.5-.21l3.26-3.26,3.26,3.26c.14.14.32.21.5.21s.36-.07.5-.21c.28-.28.28-.73,0-1l-3.26-3.26Z"/><path class="cls-1" d="m127.47,6.56c0,.91.74,1.64,1.64,1.64s1.64-.74,1.64-1.64c0-.15-.03-.28-.06-.42-.05-.57.06-1.17.38-1.71.37-.63.91-1.05,1.54-1.28h0c.57-.26.98-.83.98-1.5,0-.91-.74-1.64-1.64-1.64s-1.64.74-1.64,1.64c0,.04,0,.08.01.12l-.03.05c.1.65,0,1.33-.35,1.96-.35.61-.89,1.05-1.52,1.28l-.02.03c-.55.27-.93.82-.93,1.47Z"/><path class="cls-1" d="m133.58,17c0-.91-.74-1.64-1.64-1.64s-1.64.74-1.64,1.64c0,.12.01.23.04.34.07.6-.03,1.22-.37,1.8-.35.61-.91,1.05-1.54,1.28v.02c-.57.26-.96.83-.96,1.49,0,.91.74,1.64,1.64,1.64s1.64-.74,1.64-1.64c0-.05-.01-.1-.02-.15l.02-.03c-.1-.65,0-1.33.35-1.96.35-.61.89-1.05,1.52-1.28v-.02c.57-.26.96-.83.96-1.49Z"/><path class="cls-1" d="m140,6.3c-.36,0-.69.12-.96.31h0c-.51.42-1.15.66-1.87.66s-1.36-.24-1.87-.66h0c-.27-.2-.6-.31-.96-.31-.91,0-1.64.74-1.64,1.64s.74,1.64,1.64,1.64c.35,0,.67-.11.94-.3h0c.51-.42,1.15-.68,1.87-.68s1.36.26,1.87.68h.04c.27.19.59.3.94.3.91,0,1.64-.74,1.64-1.64s-.74-1.64-1.64-1.64Z"/><path class="cls-1" d="m125.78,16.97c.27.19.59.3.94.3.91,0,1.64-.74,1.64-1.64s-.74-1.64-1.64-1.64c-.4,0-.76.15-1.05.39-.49.37-1.09.61-1.76.61-.72,0-1.36-.26-1.87-.68h-.04c-.27-.2-.6-.31-.96-.31-.91,0-1.64.74-1.64,1.64s.74,1.64,1.64,1.64c.35,0,.67-.11.94-.3h.04c.51-.42,1.15-.66,1.87-.66s1.36.24,1.87.66h.02Z"/><path class="cls-1" d="m139.25,16.59h0c-.61-.23-1.15-.67-1.52-1.28-.37-.61-.45-1.29-.35-1.96h0c0-.06.02-.12.02-.17,0-.91-.74-1.64-1.64-1.64s-1.64.74-1.64,1.64c0,.7.44,1.3,1.06,1.53.59.24,1.09.65,1.44,1.23.35.61.45,1.31.35,1.98h0c0,.06-.02.12-.02.17,0,.91.74,1.64,1.64,1.64s1.64-.74,1.64-1.64c0-.67-.4-1.24-.98-1.5Z"/><path class="cls-1" d="m121.86,7.02c.59.23,1.11.66,1.47,1.25.35.61.45,1.29.35,1.96h0c0,.06-.02.12-.02.17,0,.91.74,1.64,1.64,1.64s1.64-.74,1.64-1.64c0-.7-.44-1.3-1.06-1.53-.58-.24-1.09-.65-1.44-1.23-.35-.61-.45-1.31-.35-1.98v-.03s0-.1,0-.15c0-.91-.74-1.64-1.64-1.64s-1.64.74-1.64,1.64c0,.7.44,1.29,1.05,1.53Z"/><path class="cls-1" d="m134.93,5.77c.91,0,1.64-.74,1.64-1.64s-.74-1.64-1.64-1.64-1.64.74-1.64,1.64.74,1.64,1.64,1.64Z"/><path class="cls-1" d="m126.1,17.79c-.91,0-1.64.74-1.64,1.64s.74,1.64,1.64,1.64,1.64-.74,1.64-1.64-.74-1.64-1.64-1.64Z"/><path class="cls-1" d="m139.35,10.13c-.91,0-1.64.74-1.64,1.64s.74,1.64,1.64,1.64,1.64-.74,1.64-1.64-.74-1.64-1.64-1.64Z"/><path class="cls-1" d="m121.7,13.42c.91,0,1.64-.74,1.64-1.64s-.74-1.64-1.64-1.64-1.64.74-1.64,1.64.74,1.64,1.64,1.64Z"/><path class="cls-1" d="m134.93,17.79c-.91,0-1.64.74-1.64,1.64s.74,1.64,1.64,1.64,1.64-.74,1.64-1.64-.74-1.64-1.64-1.64Z"/><path class="cls-1" d="m126.1,5.77c.91,0,1.64-.74,1.64-1.64s-.74-1.64-1.64-1.64-1.64.74-1.64,1.64.74,1.64,1.64,1.64Z"/><path class="cls-1" d="m154.11,7.95c-.26-.25-.55-.46-.9-.64-.58-.29-1.23-.43-1.96-.43-.9,0-1.7.21-2.42.65-.71.43-1.28,1.02-1.69,1.76-.41.75-.61,1.58-.61,2.52s.2,1.78.61,2.54c.41.76.97,1.35,1.69,1.79.71.44,1.52.65,2.42.65.73,0,1.38-.15,1.96-.44.33-.17.61-.38.87-.62v.88c0,.73-.24,1.31-.74,1.75-.5.44-1.17.65-1.99.65-.68,0-1.26-.12-1.73-.37-.47-.24-.91-.59-1.29-1.05l-1.73,1.72c.5.7,1.15,1.23,1.96,1.61.81.38,1.75.56,2.83.56s2.01-.2,2.81-.61c.82-.41,1.46-.99,1.91-1.73.47-.75.7-1.61.7-2.59V7.09h-2.69v.87Zm-1.03,6.08c-.36.2-.79.3-1.31.3-.47,0-.9-.11-1.28-.3-.38-.23-.67-.52-.88-.9-.2-.38-.3-.81-.3-1.29s.11-.9.32-1.28c.21-.38.5-.68.87-.9.36-.21.79-.32,1.29-.32.47,0,.9.11,1.28.32.38.23.67.52.87.9.2.38.3.81.3,1.29s-.11.91-.3,1.29c-.2.38-.49.68-.85.88Z"/><path class="cls-1" d="m168.27,7.12c-.38-.17-.81-.24-1.31-.24-1.12,0-1.98.35-2.57,1.06-.01.01-.02.03-.03.04v-.9h-2.7v10.01h2.7v-5.52c0-.75.18-1.31.56-1.67.36-.35.84-.53,1.41-.53.27,0,.52.03.73.11.21.08.4.2.55.38l1.7-1.96c-.32-.37-.67-.62-1.05-.78Z"/><path class="cls-1" d="m179.53,8.01c-.28-.28-.59-.52-.96-.71-.56-.29-1.2-.44-1.9-.44-.93,0-1.75.23-2.48.68-.71.46-1.29,1.08-1.7,1.87-.41.79-.62,1.69-.62,2.68s.21,1.86.62,2.65c.41.79.97,1.41,1.7,1.87.71.46,1.53.68,2.45.68.71,0,1.35-.14,1.95-.44.36-.18.67-.42.94-.69v.94h2.73V7.09h-2.73v.92Zm-.53,6.03c-.47.5-1.08.76-1.84.76-.49,0-.93-.12-1.32-.33-.38-.24-.68-.56-.9-.96-.21-.41-.32-.88-.32-1.41s.11-.99.32-1.38c.23-.41.52-.73.9-.96.36-.23.81-.35,1.31-.35s.94.11,1.32.33c.38.23.67.55.9.96.23.43.33.9.33,1.41,0,.78-.23,1.41-.7,1.93Z"/><path class="cls-1" d="m195.15,7.57c-.73-.46-1.57-.68-2.49-.68-.71,0-1.37.15-1.94.46-.34.18-.63.4-.9.65v-.91h-2.7v14.21h2.69v-5.09c.27.26.57.48.91.65.58.29,1.23.44,1.94.44.91,0,1.75-.23,2.48-.65.73-.46,1.31-1.08,1.73-1.87.43-.78.64-1.67.64-2.65s-.21-1.89-.62-2.68c-.43-.79-.99-1.41-1.73-1.87Zm-.76,5.92c-.21.4-.5.73-.88.96-.38.23-.81.35-1.31.35s-.94-.12-1.32-.35c-.39-.23-.7-.55-.9-.96s-.3-.87-.3-1.4.11-.99.32-1.38c.23-.41.52-.73.9-.96.38-.23.81-.35,1.29-.35s.94.12,1.32.35c.38.24.67.56.88.96.21.4.32.87.32,1.38s-.11.99-.32,1.4Z"/><path class="cls-1" d="m209.31,7.35c-.58-.32-1.25-.49-2.01-.49s-1.43.17-2.02.5c-.33.18-.61.41-.85.67V2.11h-2.7v14.98h2.7v-5.76h.02c0-.39.09-.74.26-1.04.17-.3.41-.55.71-.71.3-.17.65-.24,1.03-.24.58,0,1.05.18,1.43.56.38.37.56.85.56,1.44v5.72h2.73v-6.36c0-.76-.17-1.43-.5-2.01-.33-.58-.79-1.03-1.37-1.35Z"/><path class="cls-1" d="m217.21,2.37c-.44,0-.81.15-1.09.46-.29.3-.44.67-.44,1.1s.15.81.44,1.11c.29.29.65.44,1.09.44s.82-.15,1.11-.44c.29-.3.43-.67.43-1.11s-.14-.79-.43-1.1c-.29-.3-.65-.46-1.11-.46Z"/><rect class="cls-1" x="215.83" y="7.09" width="2.75" height="10.01"/><path class="cls-1" d="m230.52,7.09v.94c-.28-.29-.6-.53-.97-.72-.56-.29-1.2-.44-1.9-.44-.93,0-1.75.23-2.48.68-.71.46-1.29,1.08-1.7,1.87-.41.79-.62,1.69-.62,2.68s.21,1.86.62,2.65c.41.79.97,1.41,1.7,1.87.71.46,1.53.68,2.45.68.71,0,1.37-.14,1.94-.44.37-.19.69-.43.96-.71v.95h2.73V7.09h-2.73Zm-.55,6.95c-.47.5-1.08.76-1.84.76-.49,0-.91-.12-1.32-.33-.38-.24-.68-.56-.9-.96-.21-.41-.32-.88-.32-1.41s.11-.99.32-1.38c.23-.41.52-.73.9-.96.36-.23.81-.35,1.31-.35s.94.11,1.32.33c.38.23.67.55.9.96.23.43.33.9.33,1.41,0,.78-.23,1.41-.7,1.93Z"/></svg>