<?xml version="1.0" encoding="UTF-8"?><svg id="Calque_3" xmlns="http://www.w3.org/2000/svg" viewBox="0 0 336.41 155.19"><defs><style>.cls-1{fill:#f15648;stroke-width:0px;}</style></defs><path class="cls-1" d="m67.9,65.12h-6.51v-4.13l-42.5-7.18c-.55,3.02-.89,6.12-.93,9.29h0v2.02h-4.79L3.2,98.16l21.49-21.49,21.11,21.84s-14.48,14.22-14.48,14.36c0,0,.01,0,.02,0h-.02s16.31,30.42,16.31,30.42v-30.79h20.24l-12.19-9.94-6.16-13.75,7.69-13.75,10.69-9.94Z"/><path class="cls-1" d="m3.25,113.86l7.85-7.85-7.85-7.85c-4.33,4.33-4.33,11.36,0,15.7Z"/><path class="cls-1" d="m59.52,155.19v-11.89h-11.89c0,6.57,5.32,11.89,11.89,11.89Z"/><path class="cls-1" d="m66.39,32.99l-8.11-26.05c-.61.26-1.22.53-1.83.81l5.03,22.36c1.35,1.33,3.08,2.28,4.91,2.88Z"/><path class="cls-1" d="m61.45,30.08l-11.41-19.03c-.79.46-1.57.93-2.34,1.41l13.69,28.26v-10.69s.04.03.06.05Z"/><path class="cls-1" d="m34.84,22.97c-.79.83-1.55,1.68-2.29,2.55l28.84,24.81v-4.11l-26.55-23.25Z"/><path class="cls-1" d="m42.42,16.14c-1.08.83-2.14,1.69-3.17,2.59l22.14,27.5v-5.51l-18.97-24.58Z"/><polygon class="cls-1" points="89.2 35.76 72.2 33.8 77.14 51.23 89.2 52.91 89.2 47.27 76.45 45.36 89.2 44.02 89.2 41.51 75.08 39.58 89.2 38.27 89.2 35.76"/><path class="cls-1" d="m71.43,33.82c.23,0,.46,0,.69-.02h0s.04-.09.04-.09l.02.08,17.01-1.28v-13.67c2.29,2.13,4.67,1.93,4.67,1.93l6.87-.15-11.75-8.84,2.32-11.79c-4.65.14-9.18.59-13.55,1.32l-5.64,32.47-3.94-30.32c-.77.22-1.54.45-2.3.69l.51,28.84c1.68.56,3.44.83,5.04.83Zm11.86-12.14c1.43,0,2.6,1.16,2.6,2.6s-1.16,2.6-2.6,2.6-2.6-1.16-2.6-2.6,1.16-2.6,2.6-2.6Z"/><path class="cls-1" d="m29.35,29.65c-.84,1.19-1.64,2.4-2.4,3.65l34.44,21.1v-4.05L29.35,29.65Z"/><path class="cls-1" d="m21.09,45.49c-.63,1.8-1.17,3.65-1.61,5.54l41.92,9.97v-3.09l-40.3-12.42Z"/><path class="cls-1" d="m24.75,37.25c-.82,1.49-1.56,3.04-2.24,4.61l38.88,16.04v-3.51l-36.64-17.15Z"/><path class="cls-1" d="m44.18,88.81c0-13.04,10.59-23.69,23.69-23.69s23.69,10.65,23.69,23.69c0,4.45-1.23,8.59-3.36,12.14l13.23,10.78h-14.53l-4.84-3.94c-4,2.97-8.91,4.71-14.2,4.71-13.11,0-23.69-10.65-23.69-23.69Zm29.63,12.27l-6.52-5.29,5.81-7.1,6.91,5.62c.78-1.68,1.16-3.55,1.16-5.49,0-7.42-5.88-13.75-13.3-13.75s-13.36,6.33-13.36,13.75,5.88,13.75,13.36,13.75c2.13,0,4.2-.52,5.94-1.48Z"/><path class="cls-1" d="m99.64,93.59v-27.7h10.27v27.83c0,5.49,3.49,8.84,8.59,8.84s8.59-3.36,8.59-8.84v-27.83h10.27v27.7c0,11.43-7.88,18.92-18.85,18.92s-18.85-7.49-18.85-18.92Z"/><path class="cls-1" d="m159.37,65.89h9.3l19.63,45.84h-10.72l-4.07-9.68h-18.98l-4.07,9.68h-10.72l19.63-45.84Zm10.39,27.24l-5.75-13.81-5.75,13.81h11.49Z"/><path class="cls-1" d="m188.49,88.81c0-13.3,10.07-23.69,24.08-23.69,9.3,0,18.34,5.42,21.56,14.33h-11.82c-2.19-2.91-6.07-4.39-9.75-4.39-8.39,0-13.75,6.07-13.75,13.75s5.36,13.75,13.88,13.75c6.84,0,10.78-3.42,11.88-8.97h-13.17v-9.62h23.82c2.26,19.43-8.78,28.54-22.53,28.54s-24.21-10.39-24.21-23.69Z"/><path class="cls-1" d="m240.27,88.81c0-13.3,10.07-23.69,24.08-23.69,9.3,0,18.34,5.42,21.56,14.33h-11.81c-2.2-2.91-6.07-4.39-9.75-4.39-8.39,0-13.75,6.07-13.75,13.75s5.36,13.75,13.88,13.75c6.84,0,10.78-3.42,11.88-8.97h-13.17v-9.62h23.82c2.26,19.43-8.78,28.54-22.53,28.54s-24.21-10.39-24.21-23.69Z"/><path class="cls-1" d="m307.49,65.89h9.3l19.63,45.84h-10.72l-4.07-9.68h-18.98l-4.07,9.68h-10.72l19.63-45.84Zm10.39,27.24l-5.75-13.81-5.75,13.81h11.49Z"/></svg>