<?xml version="1.0" encoding="UTF-8"?><svg id="Calque_1" xmlns="http://www.w3.org/2000/svg" viewBox="0 0 165.08 79.52"><defs><style>.cls-1{fill:#666;stroke-width:0px;}</style></defs><path class="cls-1" d="m1.9,60.68l4.59-4.59-4.59-4.59c-2.54,2.54-2.54,6.65,0,9.18Z"/><path class="cls-1" d="m34.83,79.52v-6.96h-6.96c0,3.84,3.11,6.96,6.96,6.96Z"/><path class="cls-1" d="m52.13,32.16h-20.17v-2.04l-20.99-3.55c-.27,1.49-.44,3.02-.46,4.59h0v1h-2.8L1.87,51.5l12.57-12.57,13.46,6.33s-9.57,9.51-9.57,9.51l9.54,17.8h0v-19.78l8.05.03c18.53,0,16.21-18.37,16.21-20.65Z"/><path class="cls-1" d="m34.43,16.3l-4.01-12.87c-.3.13-.6.26-.9.4l2.48,11.04c.67.66,1.52,1.13,2.43,1.42Z"/><polygon class="cls-1" points="45.7 17.66 37.3 16.7 39.74 25.31 45.7 26.13 45.7 23.35 39.4 22.4 45.7 21.74 45.7 20.51 38.72 19.55 45.7 18.9 45.7 17.66"/><path class="cls-1" d="m13.86,18.4c-.4.74-.77,1.5-1.11,2.28l19.2,7.93v-1.73l-18.1-8.47Z"/><path class="cls-1" d="m22.59,7.97c-.54.41-1.06.84-1.56,1.28l10.94,13.58v-2.72l-9.37-12.14Z"/><path class="cls-1" d="m31.99,14.86l-5.64-9.4c-.39.23-.78.46-1.15.7l6.76,13.96v-5.28s.02.02.03.03Z"/><path class="cls-1" d="m16.14,14.65c-.42.59-.81,1.19-1.18,1.8l17.01,10.42v-2l-15.83-10.22Z"/><path class="cls-1" d="m12.05,22.47c-.31.89-.58,1.81-.8,2.74l20.7,4.92v-1.52l-19.91-6.13Z"/><path class="cls-1" d="m18.85,11.35c-.39.41-.77.83-1.13,1.26l14.25,12.26v-2.03l-13.12-11.49Z"/><path class="cls-1" d="m36.92,16.71c.12,0,.23,0,.34-.01h0s.02-.04.02-.04v.04s8.41-.63,8.41-.63v-6.75c1.13,1.05,2.31.95,2.31.95l3.39-.08-5.8-4.36,1.15-5.82c-2.3.07-4.53.29-6.69.65l-2.78,16.04-1.95-14.98c-.38.11-.76.22-1.14.34l.25,14.24c.83.27,1.7.41,2.49.41Zm5.86-6c.71,0,1.28.57,1.28,1.28s-.57,1.28-1.28,1.28-1.28-.57-1.28-1.28.57-1.28,1.28-1.28Z"/><path class="cls-1" d="m64.75,50.24c-1.27,0-2.45-.24-3.54-.71s-2.05-1.13-2.88-1.98c-.82-.85-1.46-1.83-1.93-2.94-.46-1.11-.69-2.3-.69-3.57s.23-2.48.69-3.58c.46-1.1,1.1-2.08,1.91-2.91.81-.84,1.76-1.49,2.85-1.95,1.09-.46,2.26-.69,3.53-.69s2.44.23,3.53.69c1.09.46,2.04,1.11,2.86,1.95.82.84,1.46,1.81,1.91,2.93.45,1.11.68,2.31.68,3.59s-.23,2.46-.68,3.57c-.45,1.11-1.09,2.09-1.9,2.93-.81.84-1.76,1.49-2.85,1.96-1.09.47-2.26.71-3.5.71Zm-.05-2.31c1.27,0,2.39-.3,3.36-.88.98-.59,1.74-1.4,2.3-2.44.56-1.04.83-2.22.83-3.56,0-.99-.16-1.9-.48-2.73s-.77-1.55-1.35-2.17c-.58-.62-1.27-1.09-2.05-1.43s-1.66-.5-2.62-.5c-1.27,0-2.39.29-3.36.87-.98.58-1.74,1.39-2.3,2.41-.56,1.03-.83,2.21-.83,3.54,0,.99.16,1.91.49,2.76.32.85.77,1.57,1.35,2.18.57.61,1.26,1.08,2.05,1.43.8.34,1.66.51,2.61.51Zm8.57,3.31l-8.34-8.34,1.57-1.57,8.32,8.34-1.54,1.57Z"/><path class="cls-1" d="m84.26,50.24c-1.32,0-2.49-.3-3.53-.89-1.04-.59-1.85-1.4-2.45-2.44-.6-1.04-.9-2.21-.9-3.53v-11.22h2.41v11.17c0,.94.2,1.75.59,2.44.39.69.93,1.22,1.6,1.59.68.38,1.43.56,2.27.56s1.64-.19,2.3-.56c.66-.38,1.18-.91,1.57-1.59.38-.68.58-1.49.58-2.41v-11.19h2.44v11.24c0,1.32-.3,2.49-.9,3.52-.6,1.03-1.41,1.84-2.44,2.43s-2.21.89-3.54.89Z"/><path class="cls-1" d="m93.25,49.98l7.29-17.82h1.75l7.26,17.82h-2.62l-5.98-15.07h.9l-6.03,15.07h-2.57Zm3.47-4.03v-2.11h9.37v2.11h-9.37Z"/><path class="cls-1" d="m119.15,50.24c-1.25,0-2.42-.24-3.5-.71s-2.04-1.13-2.85-1.96c-.81-.84-1.45-1.81-1.91-2.93-.46-1.11-.69-2.31-.69-3.59s.23-2.48.69-3.58c.46-1.1,1.1-2.08,1.93-2.91.82-.84,1.78-1.49,2.89-1.95,1.1-.46,2.31-.69,3.61-.69,1.42,0,2.73.27,3.93.82s2.2,1.33,3,2.36l-1.67,1.67c-.56-.82-1.31-1.45-2.23-1.89-.92-.44-1.93-.65-3.03-.65-1.3,0-2.45.29-3.45.87-1,.58-1.78,1.39-2.34,2.41-.56,1.03-.83,2.21-.83,3.54s.28,2.54.85,3.57c.56,1.03,1.33,1.83,2.28,2.41.96.58,2.05.87,3.29.87s2.33-.24,3.25-.72c.92-.48,1.62-1.18,2.12-2.12.5-.93.74-2.07.74-3.43l1.46,1.05h-7.7v-2.21h8.73v.36c0,2.07-.36,3.8-1.09,5.2-.73,1.4-1.74,2.44-3.03,3.14-1.29.7-2.77,1.05-4.43,1.05Z"/><path class="cls-1" d="m139.15,50.24c-1.25,0-2.42-.24-3.5-.71s-2.04-1.13-2.85-1.96c-.81-.84-1.45-1.81-1.91-2.93-.46-1.11-.69-2.31-.69-3.59s.23-2.48.69-3.58c.46-1.1,1.1-2.08,1.93-2.91.82-.84,1.78-1.49,2.89-1.95,1.1-.46,2.31-.69,3.61-.69,1.42,0,2.73.27,3.93.82s2.2,1.33,3,2.36l-1.67,1.67c-.56-.82-1.31-1.45-2.23-1.89-.92-.44-1.93-.65-3.03-.65-1.3,0-2.45.29-3.45.87-1,.58-1.78,1.39-2.34,2.41-.56,1.03-.83,2.21-.83,3.54s.28,2.54.85,3.57c.56,1.03,1.33,1.83,2.28,2.41.96.58,2.05.87,3.29.87s2.33-.24,3.25-.72c.92-.48,1.62-1.18,2.12-2.12.5-.93.74-2.07.74-3.43l1.46,1.05h-7.7v-2.21h8.73v.36c0,2.07-.36,3.8-1.09,5.2-.73,1.4-1.74,2.44-3.03,3.14-1.29.7-2.77,1.05-4.43,1.05Z"/><path class="cls-1" d="m148.78,49.98l7.29-17.82h1.75l7.26,17.82h-2.62l-5.98-15.07h.9l-6.03,15.07h-2.57Zm3.47-4.03v-2.11h9.37v2.11h-9.37Z"/></svg>