<?xml version="1.0" encoding="UTF-8"?><svg id="Calque_1" xmlns="http://www.w3.org/2000/svg" viewBox="0 0 16.03 16.02"><defs><style>.cls-1{fill:#f26558;stroke-width:0px;}</style></defs><path class="cls-1" d="m15.32,6.34L9.68.7c-.45-.45-1.04-.7-1.67-.7h-.02c-.62,0-1.22.26-1.68.72L.72,6.32C.26,6.78,0,7.38,0,8.01c0,.62.25,1.22.7,1.67l5.64,5.65c.46.46,1.06.69,1.66.69s1.22-.24,1.7-.71l5.61-5.61c.46-.46.71-1.06.71-1.68,0-.63-.25-1.22-.71-1.68Zm-.72,2.65l-5.61,5.61c-.57.56-1.4.57-1.95.02L1.41,8.97c-.26-.26-.41-.61-.41-.96,0-.36.15-.71.43-.98L7.02,1.43c.28-.28.64-.43.99-.43s.69.14.96.41l5.64,5.64c.55.55.55,1.39,0,1.95Z"/><path class="cls-1" d="m9.19,4.73c-.34-.18-.72-.26-1.16-.26-.51,0-.96.12-1.35.36-.39.24-.69.57-.9.99l.71.59c.15-.32.35-.56.6-.73s.55-.26.89-.26c.26,0,.48.05.67.15.19.1.34.24.44.42.1.18.16.39.16.62s-.05.44-.16.62c-.11.19-.26.33-.45.44-.19.11-.41.16-.66.16h-.29s.01,2.05.01,2.05h.84l.07-1.29c.25-.07.48-.16.68-.29.3-.2.54-.45.71-.75.17-.3.25-.64.25-1.02,0-.41-.09-.77-.28-1.08-.19-.31-.45-.56-.79-.73Z"/><path class="cls-1" d="m8.11,10.95c-.2,0-.37.07-.5.2-.13.13-.2.3-.2.5s.07.37.2.51c.13.14.3.2.5.2s.37-.07.5-.2c.13-.14.2-.3.2-.51s-.07-.37-.2-.5c-.13-.13-.3-.2-.5-.2Z"/></svg>